<svg width="36" height="36" viewBox="0 0 36 36" fill="none" xmlns="http://www.w3.org/2000/svg">
    <path d="M0 7C0 3.13401 3.13401 0 7 0H29C32.866 0 36 3.13401 36 7V29C36 32.866 32.866 36 29 36H7C3.13401 36 0 32.866 0 29V7Z" fill="#4CAF50"/>
    <path d="M9.07999 30.88V26.704L23.96 19.408C24.568 19.12 25.128 18.88 25.64 18.688C26.184 18.464 26.584 18.32 26.84 18.256C26.552 18.192 26.136 18.064 25.592 17.872C25.048 17.648 24.504 17.392 23.96 17.104L9.07999 9.76V5.44L29.72 15.76V20.56L9.07999 30.88Z" fill="white"/>
    </svg>
    