<svg width="36" height="51" viewBox="0 0 36 51" fill="none" xmlns="http://www.w3.org/2000/svg">
<path d="M0 22C0 18.134 3.13401 15 7 15H29C32.866 15 36 18.134 36 22V44C36 47.866 32.866 51 29 51H7C3.13401 51 0 47.866 0 44V22Z" fill="#4CAF50"/>
<path d="M9.08 45.88V41.704L23.96 34.408C24.568 34.12 25.128 33.88 25.64 33.688C26.184 33.464 26.584 33.32 26.84 33.256C26.552 33.192 26.136 33.064 25.592 32.872C25.048 32.648 24.504 32.392 23.96 32.104L9.08 24.76V20.44L29.72 30.76V35.56L9.08 45.88Z" fill="white"/>
</svg>
