<svg width="489" height="111" viewBox="0 0 489 111" fill="none" xmlns="http://www.w3.org/2000/svg">
<path d="M21.363 5.60935C22.0245 2.34579 24.8935 0 28.2234 0H480.044C484.468 0 487.783 4.05409 486.904 8.39064L467.242 105.391C466.58 108.654 463.711 111 460.382 111H8.56128C4.13653 111 0.821774 106.946 1.7008 102.609L21.363 5.60935Z" fill="#4CAF50"/>
<path d="M36.304 78L37.136 72.752H49.616L53.52 48.048H42.64L43.472 42.8H60.112L55.376 72.752H67.216L66.384 78H36.304ZM57.936 36.464C56.528 36.464 55.4827 36.1013 54.8 35.376C54.1173 34.6507 53.8613 33.6693 54.032 32.432C54.2453 31.152 54.8 30.1493 55.696 29.424C56.6347 28.656 57.808 28.272 59.216 28.272C60.624 28.272 61.6693 28.656 62.352 29.424C63.0773 30.1493 63.3333 31.152 63.12 32.432C62.9493 33.6693 62.3947 34.6507 61.456 35.376C60.5173 36.1013 59.344 36.464 57.936 36.464ZM87.223 78.64C83.5963 78.64 80.8443 77.808 78.967 76.144C77.0897 74.4373 76.215 72.176 76.343 69.36H82.103C82.1883 70.5973 82.7217 71.6 83.703 72.368C84.727 73.136 86.1777 73.52 88.055 73.52H90.743C93.0043 73.52 94.7537 73.0507 95.991 72.112C97.271 71.1307 98.039 69.872 98.295 68.336C98.5083 66.8427 98.1883 65.648 97.335 64.752C96.4817 63.8133 95.1163 63.1947 93.239 62.896L88.631 62.128C85.2603 61.5733 82.8497 60.528 81.399 58.992C79.9483 57.456 79.4577 55.1947 79.927 52.208C80.3963 49.0507 81.783 46.5973 84.087 44.848C86.391 43.056 89.5483 42.16 93.559 42.16H95.991C99.3617 42.16 101.943 42.9707 103.735 44.592C105.527 46.2133 106.423 48.368 106.423 51.056H100.663C100.578 49.9467 100.066 49.0507 99.127 48.368C98.231 47.6427 96.9083 47.28 95.159 47.28H92.727C90.551 47.28 88.887 47.7067 87.735 48.56C86.6257 49.4133 85.943 50.6507 85.687 52.272C85.4737 53.7227 85.7083 54.8107 86.391 55.536C87.1163 56.2613 88.375 56.7733 90.167 57.072L94.775 57.84C98.4443 58.4373 101.026 59.5253 102.519 61.104C104.055 62.6827 104.588 65.008 104.119 68.08C103.564 71.3227 102.092 73.904 99.703 75.824C97.3563 77.7013 94.0923 78.64 89.911 78.64H87.223ZM127.006 78.64C124.233 78.64 121.907 78.1067 120.03 77.04C118.195 75.9733 116.894 74.4373 116.126 72.432C115.358 70.384 115.187 67.9733 115.614 65.2L117.086 55.6C117.555 52.784 118.494 50.3733 119.902 48.368C121.31 46.3627 123.123 44.8267 125.342 43.76C127.561 42.6933 130.057 42.16 132.83 42.16C135.646 42.16 137.971 42.6933 139.806 43.76C141.641 44.8267 142.942 46.3627 143.71 48.368C144.521 50.3733 144.713 52.7627 144.286 55.536L142.75 65.2C142.323 67.9733 141.385 70.384 139.934 72.432C138.526 74.4373 136.713 75.9733 134.494 77.04C132.318 78.1067 129.822 78.64 127.006 78.64ZM127.838 73.52C130.355 73.52 132.403 72.816 133.982 71.408C135.561 70 136.563 67.9307 136.99 65.2L138.462 55.6C138.931 52.8693 138.59 50.8 137.438 49.392C136.329 47.984 134.515 47.28 131.998 47.28C129.523 47.28 127.497 47.984 125.918 49.392C124.339 50.8 123.315 52.8693 122.846 55.6L121.374 65.2C120.947 67.9307 121.289 70 122.398 71.408C123.55 72.816 125.363 73.52 127.838 73.52ZM152.197 78L153.157 72.112L169.797 56.944C172.656 54.3413 174.789 52.0373 176.197 50.032C177.648 47.984 178.522 46.0213 178.821 44.144C179.248 41.5413 178.864 39.4933 177.669 38C176.474 36.5067 174.64 35.76 172.165 35.76C169.434 35.76 167.152 36.528 165.317 38.064C163.525 39.6 162.416 41.712 161.989 44.4H156.229C156.784 41.584 157.829 39.152 159.365 37.104C160.901 35.0133 162.821 33.4133 165.125 32.304C167.472 31.1947 170.074 30.64 172.933 30.64C175.749 30.64 178.096 31.1947 179.973 32.304C181.85 33.3707 183.194 34.9067 184.005 36.912C184.816 38.9173 185.008 41.3067 184.581 44.08C184.154 46.7253 183.024 49.392 181.189 52.08C179.397 54.7253 176.624 57.712 172.869 61.04L159.621 72.752H180.805L179.973 78H152.197ZM203.756 78.64C200.897 78.64 198.487 78.0853 196.524 76.976C194.604 75.824 193.239 74.224 192.428 72.176C191.617 70.0853 191.425 67.6533 191.852 64.88L195.116 44.4C195.585 41.584 196.545 39.152 197.996 37.104C199.447 35.056 201.324 33.4773 203.628 32.368C205.932 31.216 208.513 30.64 211.372 30.64C214.273 30.64 216.684 31.216 218.604 32.368C220.524 33.4773 221.889 35.056 222.7 37.104C223.553 39.152 223.745 41.584 223.276 44.4L220.012 64.88C219.585 67.6533 218.625 70.0853 217.132 72.176C215.639 74.224 213.74 75.824 211.436 76.976C209.175 78.0853 206.615 78.64 203.756 78.64ZM204.588 73.712C207.148 73.712 209.324 72.9013 211.116 71.28C212.908 69.616 214.017 67.4827 214.444 64.88L217.708 44.4C218.135 41.7973 217.687 39.6853 216.364 38.064C215.084 36.4 213.164 35.568 210.604 35.568C208.044 35.568 205.847 36.4 204.012 38.064C202.22 39.6853 201.111 41.7973 200.684 44.4L197.42 64.88C196.993 67.4827 197.441 69.616 198.764 71.28C200.087 72.9013 202.028 73.712 204.588 73.712ZM207.596 58.416C206.444 58.416 205.505 58.0533 204.78 57.328C204.097 56.6027 203.756 55.6427 203.756 54.448C203.756 53.296 204.097 52.3787 204.78 51.696C205.505 50.9707 206.444 50.608 207.596 50.608C208.748 50.608 209.665 50.9707 210.348 51.696C211.073 52.3787 211.436 53.296 211.436 54.448C211.436 55.6427 211.073 56.6027 210.348 57.328C209.665 58.0533 208.748 58.416 207.596 58.416ZM242.131 78.64C239.272 78.64 236.862 78.0853 234.899 76.976C232.979 75.824 231.614 74.224 230.803 72.176C229.992 70.0853 229.8 67.6533 230.227 64.88L233.491 44.4C233.96 41.584 234.92 39.152 236.371 37.104C237.822 35.056 239.699 33.4773 242.003 32.368C244.307 31.216 246.888 30.64 249.747 30.64C252.648 30.64 255.059 31.216 256.979 32.368C258.899 33.4773 260.264 35.056 261.075 37.104C261.928 39.152 262.12 41.584 261.651 44.4L258.387 64.88C257.96 67.6533 257 70.0853 255.507 72.176C254.014 74.224 252.115 75.824 249.811 76.976C247.55 78.0853 244.99 78.64 242.131 78.64ZM242.963 73.712C245.523 73.712 247.699 72.9013 249.491 71.28C251.283 69.616 252.392 67.4827 252.819 64.88L256.083 44.4C256.51 41.7973 256.062 39.6853 254.739 38.064C253.459 36.4 251.539 35.568 248.979 35.568C246.419 35.568 244.222 36.4 242.387 38.064C240.595 39.6853 239.486 41.7973 239.059 44.4L235.795 64.88C235.368 67.4827 235.816 69.616 237.139 71.28C238.462 72.9013 240.403 73.712 242.963 73.712ZM245.971 58.416C244.819 58.416 243.88 58.0533 243.155 57.328C242.472 56.6027 242.131 55.6427 242.131 54.448C242.131 53.296 242.472 52.3787 243.155 51.696C243.88 50.9707 244.819 50.608 245.971 50.608C247.123 50.608 248.04 50.9707 248.723 51.696C249.448 52.3787 249.811 53.296 249.811 54.448C249.811 55.6427 249.448 56.6027 248.723 57.328C248.04 58.0533 247.123 58.416 245.971 58.416ZM267.322 78L268.282 72.112L284.922 56.944C287.781 54.3413 289.914 52.0373 291.322 50.032C292.773 47.984 293.647 46.0213 293.946 44.144C294.373 41.5413 293.989 39.4933 292.794 38C291.599 36.5067 289.765 35.76 287.29 35.76C284.559 35.76 282.277 36.528 280.442 38.064C278.65 39.6 277.541 41.712 277.114 44.4H271.354C271.909 41.584 272.954 39.152 274.49 37.104C276.026 35.0133 277.946 33.4133 280.25 32.304C282.597 31.1947 285.199 30.64 288.058 30.64C290.874 30.64 293.221 31.1947 295.098 32.304C296.975 33.3707 298.319 34.9067 299.13 36.912C299.941 38.9173 300.133 41.3067 299.706 44.08C299.279 46.7253 298.149 49.392 296.314 52.08C294.522 54.7253 291.749 57.712 287.994 61.04L274.746 72.752H295.93L295.098 78H267.322ZM305.697 78L306.657 72.112L323.297 56.944C326.156 54.3413 328.289 52.0373 329.697 50.032C331.148 47.984 332.022 46.0213 332.321 44.144C332.748 41.5413 332.364 39.4933 331.169 38C329.974 36.5067 328.14 35.76 325.665 35.76C322.934 35.76 320.652 36.528 318.817 38.064C317.025 39.6 315.916 41.712 315.489 44.4H309.729C310.284 41.584 311.329 39.152 312.865 37.104C314.401 35.0133 316.321 33.4133 318.625 32.304C320.972 31.1947 323.574 30.64 326.433 30.64C329.249 30.64 331.596 31.1947 333.473 32.304C335.35 33.3707 336.694 34.9067 337.505 36.912C338.316 38.9173 338.508 41.3067 338.081 44.08C337.654 46.7253 336.524 49.392 334.689 52.08C332.897 54.7253 330.124 57.712 326.369 61.04L313.121 72.752H334.305L333.473 78H305.697ZM357.256 78.64C355.635 78.64 354.419 78.1707 353.608 77.232C352.797 76.2933 352.52 75.0347 352.776 73.456C353.032 71.792 353.715 70.4693 354.824 69.488C355.976 68.5067 357.363 68.016 358.984 68.016C360.605 68.016 361.8 68.5067 362.568 69.488C363.379 70.4693 363.656 71.792 363.4 73.456C363.144 75.0347 362.461 76.2933 361.352 77.232C360.243 78.1707 358.877 78.64 357.256 78.64ZM380.143 89.52L381.039 84.208H389.295C391.94 84.208 394.095 83.4827 395.759 82.032C397.466 80.624 398.532 78.6187 398.959 76.016L403.375 48.048H388.655L389.487 42.8H409.967L404.719 76.016C404.292 78.7467 403.332 81.1147 401.839 83.12C400.346 85.168 398.447 86.7467 396.143 87.856C393.882 88.9653 391.3 89.52 388.399 89.52H380.143ZM407.791 36.464C406.383 36.464 405.338 36.1013 404.655 35.376C403.972 34.6507 403.716 33.6693 403.887 32.432C404.1 31.152 404.655 30.1493 405.551 29.424C406.49 28.656 407.663 28.272 409.071 28.272C410.479 28.272 411.524 28.656 412.207 29.424C412.932 30.1493 413.188 31.152 412.975 32.432C412.804 33.6693 412.25 34.6507 411.311 35.376C410.372 36.1013 409.199 36.464 407.791 36.464ZM432.598 78.64C428.971 78.64 426.219 77.808 424.342 76.144C422.465 74.4373 421.59 72.176 421.718 69.36H427.478C427.563 70.5973 428.097 71.6 429.078 72.368C430.102 73.136 431.553 73.52 433.43 73.52H436.118C438.379 73.52 440.129 73.0507 441.366 72.112C442.646 71.1307 443.414 69.872 443.67 68.336C443.883 66.8427 443.563 65.648 442.71 64.752C441.857 63.8133 440.491 63.1947 438.614 62.896L434.006 62.128C430.635 61.5733 428.225 60.528 426.774 58.992C425.323 57.456 424.833 55.1947 425.302 52.208C425.771 49.0507 427.158 46.5973 429.462 44.848C431.766 43.056 434.923 42.16 438.934 42.16H441.366C444.737 42.16 447.318 42.9707 449.11 44.592C450.902 46.2133 451.798 48.368 451.798 51.056H446.038C445.953 49.9467 445.441 49.0507 444.502 48.368C443.606 47.6427 442.283 47.28 440.534 47.28H438.102C435.926 47.28 434.262 47.7067 433.11 48.56C432.001 49.4133 431.318 50.6507 431.062 52.272C430.849 53.7227 431.083 54.8107 431.766 55.536C432.491 56.2613 433.75 56.7733 435.542 57.072L440.15 57.84C443.819 58.4373 446.401 59.5253 447.894 61.104C449.43 62.6827 449.963 65.008 449.494 68.08C448.939 71.3227 447.467 73.904 445.078 75.824C442.731 77.7013 439.467 78.64 435.286 78.64H432.598Z" fill="white"/>
</svg>
